<svg width="32" height="32" viewBox="0 0 32 32" fill="none" xmlns="http://www.w3.org/2000/svg">
<path d="M16 32C24.8366 32 32 24.8366 32 16C32 7.16344 24.8366 0 16 0C7.16344 0 0 7.16344 0 16C0 24.8366 7.16344 32 16 32Z" fill="#002D72"/>
<path d="M11.56 22.6267C9.29333 22.6267 7.54667 21.4 6.64 19.1733C6.01333 17.6133 6 16.0667 6 16C6 15.4 6.49333 14.9067 7.09333 14.9067C7.69333 14.9067 8.18667 15.3867 8.18667 15.9867C8.18667 16.1867 8.25333 20.44 11.56 20.44C12.4267 20.44 13.1067 20.1867 13.6267 19.6533C14.2267 19.0533 14.5333 18.2267 14.72 17.4133C14.9467 16.4667 14.88 15.48 15.0533 14.52C15.16 13.9333 15.32 13.3467 15.5467 12.8C16.44 10.5733 18.1867 9.34668 20.4667 9.34668C21.92 9.34668 23.1333 9.82668 24.08 10.7733C25.9867 12.6933 26 15.84 26 15.9733C26 16.5733 25.5067 17.0533 24.9067 17.0533C24.3067 17.0533 23.8133 16.56 23.8267 15.96C23.8267 15.96 23.8267 14.72 23.3333 13.5467C22.7733 12.1733 21.8267 11.5067 20.4667 11.5067C19.12 11.5067 18.1067 12.32 17.5867 13.52C17.4267 13.9067 17.3333 14.3067 17.2267 14.7067C17.04 15.44 17.08 16.2667 16.9867 17.0267C16.7867 18.52 16.2533 20.0667 15.16 21.16C14.2133 22.1067 13 22.5867 11.5467 22.5867L11.56 22.6267Z" fill="white"/>
<path d="M11.5601 17.4401C12.3554 17.4401 13.0001 16.7953 13.0001 16.0001C13.0001 15.2048 12.3554 14.5601 11.5601 14.5601C10.7648 14.5601 10.1201 15.2048 10.1201 16.0001C10.1201 16.7953 10.7648 17.4401 11.5601 17.4401Z" fill="#FFB149"/>
<path d="M20.4802 13.48H20.4669C19.9588 13.48 19.5469 13.8919 19.5469 14.4V17.6C19.5469 18.1081 19.9588 18.52 20.4669 18.52H20.4802C20.9883 18.52 21.4002 18.1081 21.4002 17.6V14.4C21.4002 13.8919 20.9883 13.48 20.4802 13.48Z" fill="#FFB149"/>
</svg>
